<?xml version="1.0" encoding="utf-8" ?>
<svg baseProfile="tiny" height="24px" version="1.2" width="24px" xmlns="http://www.w3.org/2000/svg" xmlns:ev="http://www.w3.org/2001/xml-events" xmlns:xlink="http://www.w3.org/1999/xlink"><defs /><path d="M 8,4 L 8,4 L 8,4 L 8,4 L 8,4 L 8,4 L 8,4 L 8,5 L 7,5 L 7,5 L 7,5 L 7,5 L 7,5 L 7,5 L 7,5 L 7,5 L 7,5 L 7,5 L 7,5 L 7,5 L 7,5 L 7,5 L 7,5 L 7,5 L 7,5 L 7,5 L 7,5 L 7,5 L 7,5 L 7,5 L 7,5 L 7,5 L 7,5 L 7,5 L 7,5 L 7,5 L 7,5 L 7,5 L 7,5 L 7,5 L 7,5 L 7,5 L 6,5 L 6,5 L 6,5 L 6,5 L 6,5 L 6,5 L 6,5 L 6,5 L 6,5 L 6,5 L 6,5 L 6,5 L 6,5 L 6,5 L 6,5 L 6,5 L 6,5 L 6,5 L 6,5 L 5,6 L 5,6 L 5,6 L 5,6 L 5,6 L 5,6 L 5,6 L 5,6 L 5,6 L 5,6 L 5,6 L 5,6 L 5,6 L 5,6 L 5,6 L 5,6 L 5,6 L 5,6 L 5,6 L 5,7 L 5,7 L 5,7 L 5,7 L 5,7 L 5,7 L 5,7 L 5,7 L 5,7 L 5,7 L 5,7 L 5,7 L 5,7 L 5,7 L 5,7 L 5,7 L 5,7 L 5,7 L 5,7 L 5,7 L 5,7 L 5,7 L 5,7 L 5,7 L 5,7 L 5,7 L 5,7 L 5,7 L 5,7 L 5,7 L 5,7 L 5,7 L 5,7 L 4,7 L 4,8 L 4,8 L 4,8 L 4,8 L 4,8 L 4,8 L 4,8 L 4,8 L 4,8 L 4,8 L 4,8 L 4,8 L 4,8 L 4,8 L 4,9 L 4,9 L 4,9 L 4,9 L 4,9 L 4,9 L 4,9 L 4,9 L 4,9 L 4,9 L 4,9 L 4,9 L 4,9 L 4,9 L 4,9 L 4,9 L 4,9 L 4,9 L 4,9 L 4,9 L 4,9 L 4,10 L 4,10 L 3,10 L 3,10 L 3,10 L 3,10 L 3,10 L 3,10 L 3,10 L 3,10 L 3,10 L 3,10 L 3,10 L 3,10 L 3,10 L 3,10 L 3,10 L 3,10 L 3,10 L 3,10 L 3,10 L 3,10 L 3,11 L 3,11 L 3,11 L 3,11 L 3,11 L 3,11 L 3,11 L 3,11 L 3,11 L 3,11 L 3,11 L 3,11 L 3,11 L 3,11 L 3,11 L 3,11 L 3,11 L 3,11 L 3,11 L 3,11 L 3,11 L 3,11 L 3,11 L 3,11 L 3,11 L 3,11 L 3,11 L 3,11 L 2,12 L 2,12 L 2,12 L 2,12 L 2,12 L 2,12 L 2,12 L 2,13 L 2,13 L 2,13 L 3,13 L 3,13 L 3,13 L 3,13 L 3,13 L 3,13 L 3,13 L 3,13 L 3,13 L 3,13 L 3,13 L 3,13 L 3,13 L 3,13 L 3,13 L 3,13 L 3,13 L 3,13 L 3,13 L 3,14 L 3,14 L 3,14 L 3,14 L 3,14 L 3,14 L 3,14 L 3,14 L 3,14 L 3,14 L 3,14 L 3,14 L 3,14 L 3,14 L 3,14 L 3,14 L 3,14 L 3,14 L 3,14 L 3,14 L 3,14 L 3,14 L 3,14 L 3,14 L 3,14 L 3,14 L 3,14 L 3,14 L 3,14 L 4,15 L 4,15 L 4,15 L 4,15 L 4,15 L 4,15 L 4,15 L 4,15 L 4,15 L 4,15 L 4,15 L 4,15 L 4,15 L 4,15 L 4,15 L 4,15 L 4,15 L 4,15 L 4,15 L 4,15 L 4,15 L 4,15 L 4,15 L 4,15 L 4,15 L 4,15 L 4,15 L 4,15 L 5,15 L 5,15 L 5,15 L 5,15 L 5,15 L 5,15 L 5,15 L 5,15 L 5,15 L 5,15 L 5,15 L 5,15 L 5,15 L 5,15 L 5,16 L 5,16 L 5,16 L 5,16 L 5,16 L 5,16 L 5,16 L 5,16 L 5,16 L 5,16 L 5,16 L 6,16 L 6,16 L 8,16 L 8,16 L 8,16 L 8,16 L 8,16 L 8,16 L 8,16 L 8,16 L 8,16 L 8,16 L 8,16 L 8,16 L 8,16 L 8,16 L 8,16 L 8,16 L 8,16 L 8,16 L 8,16 L 8,16 L 8,16 L 8,16 L 8,16 L 8,16 L 8,16 L 8,17 L 8,17 L 9,17 L 9,17 L 9,17 L 9,17 L 9,17 L 9,17 L 9,17 L 9,17 L 9,17 L 9,17 L 9,17 L 9,17 L 9,17 L 9,17 L 9,17 L 9,17 L 9,18 L 9,18 L 9,18 L 9,18 L 9,18 L 9,18 L 10,18 L 10,18 L 10,18 L 10,18 L 10,18 L 10,18 L 10,18 L 10,18 L 10,18 L 10,18 L 10,18 L 10,18 L 10,18 L 10,18 L 10,18 L 10,18 L 10,18 L 10,18 L 10,18 L 10,18 L 10,18 L 10,18 L 10,18 L 10,18 L 10,18 L 10,18 L 10,18 L 10,18 L 10,18 L 10,18 L 10,18 L 10,18 L 10,18 L 11,18 L 11,18 L 11,18 L 11,18 L 11,18 L 11,18 L 11,18 L 11,18 L 11,18 L 11,18 L 12,18 L 12,18 L 12,18 L 12,18 L 12,18 L 12,18 L 12,18 L 12,18 L 12,18 L 12,18 L 12,18 L 13,18 L 13,18 L 13,18 L 13,18 L 13,18 L 13,18 L 13,18 L 13,18 L 13,18 L 13,18 L 13,18 L 13,18 L 13,18 L 13,18 L 13,18 L 13,18 L 13,18 L 13,18 L 13,18 L 13,18 L 13,18 L 13,18 L 13,18 L 13,18 L 13,18 L 13,18 L 13,18 L 13,18 L 13,18 L 13,18 L 13,18 L 13,18 L 14,18 L 14,18 L 14,18 L 14,18 L 14,17 L 14,17 L 14,17 L 14,17 L 14,17 L 14,17 L 14,17 L 14,17 L 14,17 L 14,17 L 14,17 L 14,17 L 14,17 L 14,17 L 14,17 L 14,17 L 14,17 L 14,17 L 15,17 L 15,17 L 15,16 L 15,16 L 15,16 L 15,16 L 15,16 L 15,16 L 15,16 L 15,16 L 15,16 L 15,16 L 15,16 L 15,16 L 15,16 L 15,16 L 15,16 L 15,16 L 15,16 L 15,16 L 15,16 L 15,16 L 15,16 L 15,16 L 15,16 L 15,16 L 15,16 L 15,16 L 15,16 L 15,16 L 15,16 L 15,16 L 15,16 L 15,15 L 15,15 L 15,15 L 15,15 L 15,15 L 16,15 L 16,15 L 16,15 L 16,15 L 16,15 L 16,15 L 16,15 L 16,15 L 16,15 L 16,15 L 16,15 L 16,15 L 16,15 L 16,15 L 16,15 L 16,15 L 16,15 L 16,16 L 16,16 L 16,16 L 16,16 L 16,16 L 16,16 L 16,16 L 16,16 L 16,16 L 16,16 L 16,16 L 16,16 L 16,16 L 16,16 L 16,16 L 16,16 L 16,16 L 16,16 L 16,16 L 16,16 L 16,16 L 16,16 L 16,16 L 17,16 L 17,16 L 17,16 L 17,16 L 17,16 L 17,16 L 17,16 L 17,16 L 17,16 L 17,16 L 17,16 L 17,16 L 17,16 L 17,16 L 17,16 L 17,16 L 17,16 L 17,16 L 17,16 L 17,16 L 17,16 L 17,16 L 17,16 L 17,16 L 17,16 L 17,16 L 18,16 L 18,16 L 18,16 L 18,16 L 18,16 L 18,16 L 18,16 L 18,16 L 18,16 L 18,16 L 18,16 L 18,16 L 18,16 L 18,16 L 19,16 L 19,16 L 19,16 L 19,16 L 19,16 L 19,16 L 19,16 L 19,16 L 19,16 L 19,16 L 19,16 L 19,16 L 19,16 L 19,16 L 19,16 L 19,16 L 19,16 L 19,16 L 19,16 L 19,16 L 19,16 L 19,16 L 19,16 L 19,16 L 19,16 L 19,16 L 19,16 L 19,16 L 19,16 L 19,16 L 19,16 L 19,16 L 19,16 L 19,16 L 19,16 L 19,15 L 19,15 L 19,15 L 19,15 L 19,15 L 19,15 L 19,15 L 20,15 L 20,15 L 20,15 L 20,15 L 20,15 L 20,15 L 20,15 L 20,15 L 20,15 L 20,15 L 20,15 L 20,15 L 20,15 L 20,15 L 20,15 L 20,15 L 20,15 L 20,15 L 20,15 L 20,15 L 20,15 L 20,15 L 20,14 L 20,14 L 20,14 L 20,14 L 20,14 L 20,14 L 20,14 L 20,14 L 20,14 L 20,14 L 20,14 L 20,14 L 20,14 L 20,14 L 20,14 L 20,14 L 20,14 L 20,14 L 20,14 L 20,14 L 20,14 L 20,14 L 20,14 L 19,14 L 19,14 L 19,14 L 19,14 L 19,14 L 19,13 L 20,13 L 20,13 L 20,13 L 20,13 L 20,13 L 20,13 L 20,13 L 20,13 L 20,13 L 20,13 L 19,13 L 19,13 L 19,12 L 19,12 L 19,12 L 19,12 L 19,12 L 19,12 L 19,12 L 19,12 L 19,12 L 19,12 L 19,12 L 19,12 L 19,12 L 19,12 L 19,12 L 19,12 L 19,13 L 19,13 L 19,13 L 19,13 L 19,13 L 19,13 L 19,12 L 19,12 L 19,12 L 19,12 L 18,12 L 18,12 L 18,12 L 18,12 L 18,12 L 18,12 L 18,12 L 18,12 L 18,12 L 18,12 L 18,12 L 18,12 L 18,12 L 18,12 L 18,12 L 18,12 L 18,12 L 18,12 L 18,12 L 18,12 L 18,12 L 17,12 L 17,12 L 17,12 L 17,12 L 17,12 L 17,12 L 17,12 L 17,12 L 17,12 L 17,12 L 17,12 L 17,12 L 17,12 L 17,12 L 17,12 L 17,12 L 17,12 L 17,12 L 17,12 L 17,12 L 17,12 L 17,12 L 17,12 L 17,12 L 17,13 L 17,13 L 17,13 L 17,13 L 17,13 L 17,13 L 16,12 L 16,12 L 16,12 L 16,12 L 16,12 L 16,12 L 16,12 L 16,12 L 16,12 L 16,12 L 16,12 L 16,12 L 16,12 L 16,12 L 16,13 L 16,13 L 16,13 L 16,13 L 16,13 L 16,12 L 16,12 L 16,12 L 16,12 L 16,12 L 16,12 L 16,12 L 16,12 L 16,12 L 16,12 L 16,12 L 16,12 L 16,12 L 16,12 L 16,12 L 16,12 L 16,12 L 16,12 L 16,12 L 16,12 L 16,12 L 16,12 L 16,12 L 16,12 L 16,12 L 16,11 L 16,11 L 16,11 L 16,11 L 15,11 L 15,11 L 15,11 L 15,11 L 15,11 L 15,11 L 15,11 L 15,11 L 15,11 L 15,11 L 15,11 L 15,11 L 15,11 L 15,11 L 15,11 L 15,11 L 15,11 L 15,11 L 15,11 L 15,11 L 15,11 L 15,11 L 15,11 L 15,11 L 15,11 L 15,11 L 15,11 L 15,11 L 15,11 L 15,10 L 15,10 L 15,10 L 15,10 L 15,10 L 14,10 L 14,10 L 14,10 L 14,10 L 14,10 L 14,9 L 14,9 L 14,9 L 14,9 L 14,9 L 14,9 L 14,9 L 14,9 L 14,9 L 14,9 L 14,9 L 14,9 L 14,9 L 14,9 L 14,9 L 14,9 L 14,9 L 14,9 L 14,9 L 14,9 L 14,9 L 14,9 L 14,9 L 14,9 L 14,9 L 14,9 L 14,9 L 14,8 L 14,8 L 14,8 L 14,8 L 14,8 L 14,8 L 14,8 L 14,8 L 13,8 L 13,8 L 13,8 L 13,8 L 13,8 L 13,8 L 13,8 L 13,8 L 13,8 L 13,8 L 13,7 L 13,7 L 13,7 L 13,7 L 13,7 L 13,7 L 13,7 L 13,7 L 13,7 L 13,7 L 13,7 L 13,7 L 13,7 L 13,7 L 13,7 L 13,7 L 14,7 L 14,7 L 14,7 L 14,7 L 14,7 L 14,7 L 14,7 L 14,7 L 14,7 L 14,7 L 14,7 L 14,7 L 14,6 L 14,6 L 14,6 L 14,6 L 14,6 L 14,6 L 14,6 L 15,6 L 15,6 L 15,6 L 15,6 L 15,6 L 15,6 L 15,6 L 15,6 L 15,6 L 15,6 L 15,6 L 15,6 L 15,6 L 15,6 L 15,6 L 15,6 L 15,6 L 15,6 L 14,6 L 14,6 L 14,6 L 14,6 L 14,6 L 14,6 L 14,6 L 14,6 L 14,6 L 14,6 L 14,6 L 14,6 L 14,6 L 14,6 L 14,6 L 14,6 L 14,6 L 14,6 L 14,6 L 14,6 L 14,6 L 14,6 L 14,6 L 14,6 L 14,6 L 14,6 L 14,6 L 14,6 L 14,6 L 13,7 L 13,7 L 13,7 L 13,7 L 13,7 L 13,7 L 13,7 L 13,7 L 13,7 L 13,7 L 13,7 L 13,7 L 13,7 L 13,7 L 13,7 L 13,7 L 13,7 L 13,7 L 13,7 L 13,7 L 13,7 L 13,7 L 13,7 L 13,7 L 13,7 L 13,7 L 13,7 L 13,7 L 13,7 L 13,7 L 13,7 L 13,7 L 13,7 L 13,7 L 13,7 L 12,7 L 12,7 L 12,7 L 12,7 L 12,7 L 12,7 L 12,7 L 12,7 L 12,7 L 12,7 L 12,7 L 12,7 L 12,7 L 12,7 L 12,7 L 12,7 L 12,7 L 12,7 L 12,7 L 12,7 L 12,7 L 12,7 L 12,7 L 12,7 L 12,7 L 12,7 L 12,7 L 12,7 L 12,7 L 12,7 L 12,7 L 12,6 L 12,6 L 12,6 L 12,6 L 12,6 L 12,6 L 12,6 L 12,6 L 12,6 L 12,6 L 12,6 L 12,6 L 12,6 L 12,6 L 12,6 L 12,6 L 12,6 L 12,6 L 12,6 L 11,5 L 11,5 L 11,5 L 11,5 L 11,5 L 11,5 L 11,5 L 11,5 L 11,5 L 11,5 L 11,5 L 11,5 L 11,5 L 11,5 L 11,5 L 11,5 L 11,5 L 11,5 L 10,5 L 10,5 L 10,5 L 10,5 L 10,5 L 10,5 L 10,5 L 10,5 L 10,5 L 10,5 L 10,5 L 10,5 L 10,5 L 10,5 L 10,5 L 10,5 L 10,5 L 10,5 L 10,5 L 10,5 L 10,5 L 10,5 L 10,5 L 10,5 L 10,5 L 10,5 L 10,5 L 10,5 L 10,5 L 10,5 L 10,5 L 10,5 L 10,5 L 10,5 L 10,5 L 9,5 L 9,5 L 9,5 L 9,4 L 9,4 L 9,4 L 9,4 L 9,4 L 9,4 L 9,4 Z" fill="black" /></svg>