<?xml version="1.0" standalone="no"?>
<!DOCTYPE svg PUBLIC "-//W3C//DTD SVG 20010904//EN"
 "http://www.w3.org/TR/2001/REC-SVG-20010904/DTD/svg10.dtd">
<svg version="1.0" xmlns="http://www.w3.org/2000/svg"
 width="128.000000pt" height="128.000000pt" viewBox="0 0 128.000000 128.000000"
 preserveAspectRatio="xMidYMid meet">

<g transform="translate(0.000000,128.000000) scale(0.100000,-0.100000)"
fill="#000000" stroke="none">
<path d="M466 978 c-78 -21 -156 -126 -156 -212 0 -16 -5 -26 -15 -26 -26 0
-83 -60 -101 -105 -30 -79 -1 -164 73 -215 24 -17 52 -24 106 -28 58 -4 78
-10 102 -30 45 -38 88 -52 155 -52 62 0 99 13 155 55 24 17 48 23 111 27 92 5
130 22 177 80 32 40 45 107 33 173 -10 50 -71 111 -127 126 -38 10 -47 18 -61
50 -9 21 -30 47 -48 57 -41 25 -105 35 -131 21 -18 -9 -26 -6 -59 26 -36 35
-110 66 -154 64 -12 -1 -39 -6 -60 -11z m118 -234 c33 -32 7 -94 -40 -94 -24
0 -54 33 -54 59 0 42 63 66 94 35z m168 -1 c22 -20 23 -42 2 -71 -18 -26 -50
-28 -76 -5 -22 20 -23 51 -1 75 20 22 51 23 75 1z"/>
</g>
</svg>
