<?xml version="1.0" standalone="no"?>
<!DOCTYPE svg PUBLIC "-//W3C//DTD SVG 20010904//EN"
 "http://www.w3.org/TR/2001/REC-SVG-20010904/DTD/svg10.dtd">
<svg version="1.0" xmlns="http://www.w3.org/2000/svg"
 width="808.000000pt" height="658.000000pt" viewBox="0 0 808.000000 658.000000"
 preserveAspectRatio="xMidYMid meet">

<g transform="translate(0.000000,658.000000) scale(0.100000,-0.100000)"
fill="#000000" stroke="none">
<path d="M2399 6405 c-268 -39 -551 -152 -764 -305 -110 -79 -291 -257 -372
-365 -245 -326 -383 -744 -383 -1159 l0 -123 -52 -28 c-253 -134 -473 -365
-601 -627 -218 -446 -205 -973 34 -1402 211 -381 552 -632 1009 -743 103 -26
113 -26 561 -30 l455 -5 19 -36 c133 -254 375 -521 629 -691 167 -113 357
-197 561 -249 168 -42 266 -54 450 -55 269 0 484 46 727 155 419 187 778 549
965 970 l48 107 45 1 c25 1 69 5 98 9 l53 8 30 -43 c16 -23 47 -58 70 -77 l41
-36 -31 -83 c-37 -101 -38 -119 -8 -151 25 -28 282 -147 316 -147 35 0 54 15
116 90 l57 70 102 -1 101 -1 67 -78 c45 -52 77 -80 96 -85 22 -4 59 9 164 59
75 35 146 74 157 85 28 28 27 67 -6 163 l-26 79 35 37 c19 20 47 54 63 75 24
32 32 37 59 33 188 -29 191 -26 252 178 24 83 44 164 44 182 0 46 -25 69 -115
108 l-80 35 -8 48 c-4 26 -15 76 -24 111 l-15 63 71 73 c106 110 105 115 -76
328 -41 47 -81 89 -89 92 -35 14 -68 3 -144 -44 l-80 -50 -38 24 c-20 13 -62
36 -92 51 -30 15 -56 28 -58 30 -1 1 -9 51 -16 111 -21 158 -15 154 -250 154
-178 0 -184 -1 -208 -23 -23 -21 -26 -34 -32 -135 -5 -77 -11 -112 -20 -112
-6 0 -52 -20 -101 -45 -50 -25 -97 -43 -106 -40 -9 3 -40 23 -69 45 -78 58
-112 56 -177 -11 l-50 -51 -7 48 c-4 27 -17 83 -27 124 -95 360 -283 681 -545
929 l-75 72 6 67 c12 126 -34 271 -126 397 -17 22 -60 83 -96 135 -65 92 -153
188 -241 263 -44 36 -44 36 -32 74 35 107 114 226 216 324 116 111 210 158
369 185 50 8 101 23 115 33 54 39 46 121 -15 150 -26 13 -42 13 -128 -2 -183
-31 -333 -112 -478 -256 -102 -102 -155 -176 -215 -301 l-37 -78 -61 28 c-34
15 -68 30 -77 33 -9 3 -28 39 -43 81 -224 631 -787 1079 -1451 1156 -118 13
-348 11 -456 -5z m566 -195 c489 -104 894 -419 1101 -855 68 -143 75 -131 -74
-127 -207 6 -379 -26 -555 -104 -43 -19 -80 -34 -81 -34 -2 0 -20 34 -40 76
-80 168 -198 318 -326 411 -128 94 -316 163 -453 166 -72 2 -79 0 -97 -23 -28
-36 -26 -95 3 -124 18 -18 40 -26 88 -31 268 -30 472 -180 603 -444 68 -136
70 -125 -34 -227 -98 -95 -250 -302 -311 -424 -44 -86 -59 -155 -59 -269 l0
-87 -81 -79 c-168 -164 -291 -331 -388 -523 -71 -141 -127 -295 -164 -452 -55
-229 -64 -580 -21 -830 14 -80 65 -271 93 -349 17 -47 31 -86 31 -88 0 -8
-633 -1 -722 8 -348 37 -644 179 -867 415 -253 268 -375 603 -358 988 12 265
103 517 268 735 107 143 237 249 419 346 60 32 99 59 107 75 9 17 13 78 13
189 0 412 110 755 341 1066 250 337 599 545 1023 610 133 21 411 13 541 -15z
m442 -1611 c226 -84 327 -344 215 -552 -32 -59 -111 -133 -176 -166 -65 -32
-189 -40 -265 -17 -267 79 -360 416 -173 626 97 110 269 157 399 109z m1336
-7 c26 -12 74 -46 106 -77 204 -194 159 -507 -90 -625 -187 -88 -410 -9 -501
178 -31 62 -33 74 -33 167 0 87 3 107 27 157 45 97 132 176 236 215 55 20 195
12 255 -15z m-709 -424 c2 -7 9 -38 16 -68 20 -90 67 -168 150 -251 53 -53 97
-86 142 -107 236 -113 472 -70 662 121 l78 79 60 -58 c406 -399 590 -1004 489
-1609 -54 -324 -192 -629 -401 -888 -231 -287 -607 -520 -958 -592 -84 -18
-230 -34 -237 -26 -3 2 -5 676 -5 1497 l0 1493 -24 27 c-18 21 -32 28 -61 28
-29 0 -43 -7 -61 -28 l-24 -27 0 -1499 0 -1498 -62 5 c-284 23 -612 151 -853
331 -205 155 -401 392 -523 637 -262 521 -268 1150 -18 1670 89 184 220 368
355 500 l41 39 16 -24 c39 -58 150 -152 219 -185 97 -46 146 -58 250 -59 69 0
107 5 163 23 189 61 346 228 383 408 l13 62 85 4 c47 1 90 4 94 5 4 1 9 -4 11
-10z m2631 -1055 c10 -81 26 -137 43 -157 9 -10 43 -31 75 -47 32 -16 87 -48
123 -70 103 -63 139 -62 241 5 l51 33 55 -66 56 -66 -48 -50 c-52 -54 -81
-101 -81 -135 0 -11 9 -53 20 -92 11 -40 23 -101 26 -136 9 -87 34 -121 111
-152 34 -14 65 -28 69 -32 4 -4 -4 -44 -16 -89 l-23 -81 -64 6 c-93 10 -133
-4 -173 -61 -19 -27 -55 -70 -80 -98 -89 -96 -95 -117 -60 -227 11 -34 20 -64
20 -65 0 -2 -32 -19 -72 -39 l-72 -36 -20 28 c-33 48 -114 121 -138 126 -13 2
-85 1 -161 -2 l-138 -5 -67 -68 -66 -69 -68 33 c-37 18 -68 39 -68 46 0 8 6
28 13 46 22 52 28 102 17 133 -6 16 -37 56 -68 89 -32 33 -75 83 -95 112 -44
61 -67 68 -183 61 -86 -6 -83 -13 -53 107 20 77 23 84 50 90 44 10 86 65 99
132 7 32 20 89 31 128 10 38 19 84 19 103 0 45 -30 98 -84 151 l-45 44 32 40
c18 21 41 52 53 68 l21 29 39 -28 c92 -67 140 -67 274 -1 58 29 120 59 139 68
45 21 61 49 67 118 3 32 7 73 10 91 l5 32 89 0 89 0 6 -47z"/>
<path d="M2913 3226 c-92 -30 -148 -81 -189 -171 -104 -227 93 -484 333 -435
96 20 176 80 221 165 24 44 27 61 27 145 0 104 -14 144 -74 213 -68 77 -217
116 -318 83z"/>
<path d="M4804 3229 c-100 -23 -198 -115 -226 -212 -18 -64 -13 -158 13 -216
27 -65 111 -143 175 -165 68 -23 178 -21 234 5 63 28 117 84 151 154 24 49 29
73 29 130 -1 150 -80 257 -220 299 -59 18 -94 19 -156 5z"/>
<path d="M3026 2175 c-77 -27 -166 -121 -187 -198 -17 -64 -8 -174 19 -227 57
-109 148 -164 272 -165 122 0 213 53 278 163 24 42 27 57 27 137 0 76 -4 97
-25 139 -32 62 -107 130 -167 150 -57 19 -164 20 -217 1z"/>
<path d="M4624 2166 c-69 -32 -120 -79 -152 -140 -23 -44 -27 -63 -27 -141 0
-74 4 -97 23 -132 53 -101 137 -158 248 -169 127 -13 251 55 308 171 38 76 40
173 6 253 -28 66 -111 144 -176 166 -71 24 -168 21 -230 -8z"/>
<path d="M6458 2691 c-75 -21 -178 -88 -222 -145 -15 -20 -41 -66 -59 -104
-30 -62 -32 -74 -32 -172 1 -129 23 -194 99 -284 40 -46 70 -70 129 -100 69
-36 87 -40 166 -44 105 -5 179 13 255 63 145 94 213 228 204 398 -6 110 -45
196 -126 276 -70 70 -137 107 -223 121 -85 13 -112 12 -191 -9z m243 -167
c201 -101 196 -402 -9 -504 -134 -68 -298 -13 -370 124 -36 70 -38 179 -3 246
76 148 241 206 382 134z"/>
</g>
</svg>
